# Blender 4.0.2
# www.blender.org
mtllib saturn_rings.mtl
o NurbsCircle
v -0.000000 0.000000 1.372980
v -0.081976 0.000000 1.370522
v -0.165388 0.000000 1.362956
v -0.249952 0.000000 1.349992
v -0.335181 0.000000 1.331377
v -0.420538 0.000000 1.306912
v -0.505444 0.000000 1.276464
v -0.589291 0.000000 1.239975
v -0.671450 0.000000 1.197467
v -0.751287 0.000000 1.149051
v -0.828177 0.000000 1.094923
v -0.901519 0.000000 1.035368
v -0.970753 0.000000 0.970753
v -1.035368 0.000000 0.901519
v -1.094924 0.000000 0.828177
v -1.149051 0.000000 0.751287
v -1.197468 0.000000 0.671449
v -1.239974 0.000000 0.589291
v -1.276464 0.000000 0.505444
v -1.306912 0.000000 0.420538
v -1.331377 0.000000 0.335181
v -1.349992 0.000000 0.249952
v -1.362956 0.000000 0.165388
v -1.370522 0.000000 0.081976
v -1.372980 0.000000 -0.000000
v -1.370522 0.000000 -0.081977
v -1.362956 0.000000 -0.165388
v -1.349992 0.000000 -0.249953
v -1.331377 0.000000 -0.335182
v -1.306912 0.000000 -0.420538
v -1.276464 0.000000 -0.505444
v -1.239974 0.000000 -0.589291
v -1.197467 0.000000 -0.671450
v -1.149051 0.000000 -0.751287
v -1.094923 0.000000 -0.828177
v -1.035368 0.000000 -0.901520
v -0.970753 0.000000 -0.970753
v -0.901519 0.000000 -1.035368
v -0.828176 0.000000 -1.094924
v -0.751287 0.000000 -1.149052
v -0.671449 0.000000 -1.197468
v -0.589290 0.000000 -1.239975
v -0.505444 0.000000 -1.276464
v -0.420538 0.000000 -1.306912
v -0.335181 0.000000 -1.331377
v -0.249952 0.000000 -1.349992
v -0.165388 0.000000 -1.362956
v -0.081976 0.000000 -1.370522
v 0.000000 0.000000 -1.372980
v 0.081977 0.000000 -1.370522
v 0.165388 0.000000 -1.362956
v 0.249953 0.000000 -1.349992
v 0.335182 0.000000 -1.331377
v 0.420538 0.000000 -1.306912
v 0.505444 0.000000 -1.276464
v 0.589291 0.000000 -1.239975
v 0.671450 0.000000 -1.197467
v 0.751287 0.000000 -1.149051
v 0.828177 0.000000 -1.094923
v 0.901520 0.000000 -1.035368
v 0.970753 0.000000 -0.970753
v 1.035368 0.000000 -0.901519
v 1.094924 0.000000 -0.828176
v 1.149052 0.000000 -0.751287
v 1.197468 0.000000 -0.671449
v 1.239975 0.000000 -0.589290
v 1.276464 0.000000 -0.505444
v 1.306912 0.000000 -0.420538
v 1.331377 0.000000 -0.335181
v 1.349992 0.000000 -0.249952
v 1.362956 0.000000 -0.165388
v 1.370522 0.000000 -0.081976
v 1.372980 0.000000 0.000000
v 1.370522 0.000000 0.081977
v 1.362956 0.000000 0.165388
v 1.349992 0.000000 0.249953
v 1.331377 0.000000 0.335182
v 1.306912 0.000000 0.420538
v 1.276464 0.000000 0.505444
v 1.239974 0.000000 0.589291
v 1.197467 0.000000 0.671450
v 1.149051 0.000000 0.751287
v 1.094923 0.000000 0.828177
v 1.035368 0.000000 0.901520
v 0.970753 0.000000 0.970753
v 0.901519 0.000000 1.035369
v 0.828176 0.000000 1.094924
v 0.751287 0.000000 1.149052
v 0.671449 0.000000 1.197468
v 0.589290 0.000000 1.239975
v 0.505444 0.000000 1.276464
v 0.420537 0.000000 1.306912
v 0.335181 0.000000 1.331377
v 0.249952 0.000000 1.349992
v 0.165387 0.000000 1.362956
v 0.081976 0.000000 1.370522
v 0.000000 0.000000 2.312583
v -0.138106 0.000000 2.308439
v -0.278599 0.000000 2.295690
v -0.421032 0.000000 2.273851
v -0.564584 0.000000 2.242492
v -0.708350 0.000000 2.201280
v -0.851358 0.000000 2.149993
v -0.992580 0.000000 2.088531
v -1.130959 0.000000 2.016932
v -1.265428 0.000000 1.935383
v -1.394933 0.000000 1.844214
v -1.518463 0.000000 1.743905
v -1.635072 0.000000 1.635072
v -1.743905 0.000000 1.518463
v -1.844214 0.000000 1.394933
v -1.935383 0.000000 1.265428
v -2.016932 0.000000 1.130959
v -2.088530 0.000000 0.992580
v -2.149992 0.000000 0.851358
v -2.201280 0.000000 0.708350
v -2.242492 0.000000 0.564584
v -2.273850 0.000000 0.421032
v -2.295690 0.000000 0.278598
v -2.308439 0.000000 0.138106
v -2.312583 0.000000 -0.000000
v -2.308439 0.000000 -0.138107
v -2.295690 0.000000 -0.278599
v -2.273850 0.000000 -0.421032
v -2.242491 0.000000 -0.564584
v -2.201280 0.000000 -0.708351
v -2.149992 0.000000 -0.851358
v -2.088530 0.000000 -0.992580
v -2.016932 0.000000 -1.130960
v -1.935383 0.000000 -1.265428
v -1.844214 0.000000 -1.394933
v -1.743904 0.000000 -1.518463
v -1.635072 0.000000 -1.635072
v -1.518463 0.000000 -1.743905
v -1.394933 0.000000 -1.844215
v -1.265428 0.000000 -1.935384
v -1.130959 0.000000 -2.016933
v -0.992579 0.000000 -2.088531
v -0.851357 0.000000 -2.149993
v -0.708350 0.000000 -2.201280
v -0.564584 0.000000 -2.242492
v -0.421032 0.000000 -2.273851
v -0.278598 0.000000 -2.295690
v -0.138106 0.000000 -2.308439
v 0.000000 0.000000 -2.312583
v 0.138107 0.000000 -2.308439
v 0.278599 0.000000 -2.295690
v 0.421032 0.000000 -2.273851
v 0.564585 0.000000 -2.242492
v 0.708351 0.000000 -2.201280
v 0.851358 0.000000 -2.149992
v 0.992580 0.000000 -2.088531
v 1.130960 0.000000 -2.016932
v 1.265428 0.000000 -1.935383
v 1.394933 0.000000 -1.844214
v 1.518463 0.000000 -1.743904
v 1.635072 0.000000 -1.635072
v 1.743905 0.000000 -1.518463
v 1.844215 0.000000 -1.394933
v 1.935384 0.000000 -1.265428
v 2.016933 0.000000 -1.130959
v 2.088531 0.000000 -0.992579
v 2.149993 0.000000 -0.851358
v 2.201281 0.000000 -0.708350
v 2.242492 0.000000 -0.564584
v 2.273851 0.000000 -0.421032
v 2.295691 0.000000 -0.278598
v 2.308439 0.000000 -0.138106
v 2.312583 0.000000 0.000000
v 2.308439 0.000000 0.138107
v 2.295690 0.000000 0.278599
v 2.273851 0.000000 0.421032
v 2.242492 0.000000 0.564585
v 2.201280 0.000000 0.708351
v 2.149993 0.000000 0.851358
v 2.088530 0.000000 0.992581
v 2.016933 0.000000 1.130960
v 1.935384 0.000000 1.265428
v 1.844214 0.000000 1.394934
v 1.743904 0.000000 1.518463
v 1.635072 0.000000 1.635072
v 1.518462 0.000000 1.743905
v 1.394933 0.000000 1.844215
v 1.265428 0.000000 1.935384
v 1.130958 0.000000 2.016933
v 0.992579 0.000000 2.088531
v 0.851358 0.000000 2.149993
v 0.708350 0.000000 2.201281
v 0.564584 0.000000 2.242492
v 0.421032 0.000000 2.273851
v 0.278598 0.000000 2.295691
v 0.138106 0.000000 2.308439
vn -0.0000 1.0000 -0.0000
vt 0.999862 0.074695
vt 0.999856 0.058416
vt 0.000045 0.064786
vt 0.000045 0.080923
vt 1.000119 0.821605
vt 1.000111 0.797271
vt 0.000053 0.792966
vt 0.000053 0.816911
vt 1.000128 0.847629
vt 1.000135 0.868752
vt 0.000054 0.863427
vt 0.000054 0.842566
vt 0.999851 0.043546
vt 0.000044 0.050166
vt 1.000102 0.771304
vt 0.000053 0.767381
vt 1.000142 0.888579
vt 0.000054 0.882996
vt 0.999847 0.030478
vt 0.000044 0.037242
vt 1.000092 0.743816
vt 0.000053 0.740223
vt 1.000149 0.907505
vt 0.000054 0.901608
vt 0.999843 0.019099
vt 0.000044 0.026179
vt 1.000082 0.714751
vt 0.000052 0.711584
vt 1.000155 0.925305
vt 0.000055 0.919077
vt 0.999890 0.155864
vt 0.999898 0.178451
vt 0.000046 0.183089
vt 0.000046 0.160826
vt 0.999840 0.009974
vt 0.000044 0.017127
vt 1.000072 0.684277
vt 0.000052 0.681585
vt 1.000161 0.941584
vt 0.000055 0.935214
vt 0.999906 0.202729
vt 0.000046 0.207034
vt 0.999837 0.002933
vt 0.000044 0.010214
vt 1.000061 0.652621
vt 0.000051 0.650372
vt 1.000166 0.956454
vt 0.000055 0.949834
vt 0.999915 0.228696
vt 0.000047 0.232619
vt 0.999836 -0.001798
vt 0.000044 0.005543
vt 1.000050 0.619894
vt 0.000051 0.618117
vt 1.000170 0.969579
vt 0.000055 0.962758
vt 0.999925 0.256184
vt 0.000047 0.259777
vt 0.999835 -0.004108
vt 0.000044 0.003186
vt 1.000038 0.586266
vt 0.000051 0.585017
vt 1.000174 0.980788
vt 0.000055 0.973821
vt 0.999935 0.285249
vt 0.000047 0.288416
vt 1.000026 0.552019
vt 0.000050 0.551284
vt 1.000177 0.990026
vt 0.000055 0.982873
vt 0.999945 0.315723
vt 0.000048 0.318415
vt 0.000044 0.005551
vt 1.000014 0.517377
vt 0.000050 0.517149
vt 1.000179 0.997067
vt 0.000056 0.989786
vt 0.999956 0.347436
vt 0.000048 0.349628
vt 0.999837 0.003046
vt 0.000044 0.010256
vt 1.000003 0.482623
vt 0.000049 0.482851
vt 1.000181 1.001798
vt 0.000056 0.994457
vt 0.999967 0.380106
vt 0.000048 0.381883
vt 0.999840 0.010087
vt 0.000044 0.017242
vt 0.999991 0.447868
vt 0.000049 0.448635
vt 1.000182 1.004108
vt 0.000056 0.996814
vt 0.999979 0.413734
vt 0.000049 0.414984
vt 0.999843 0.019437
vt 0.000044 0.026421
vt 0.999979 0.413396
vt 0.000049 0.414743
vt 0.999991 0.447981
vt 0.000049 0.448716
vt 0.999847 0.030816
vt 0.000044 0.037676
vt 0.999967 0.379655
vt 0.000048 0.381413
vt 0.000056 0.994449
vt 0.000049 0.482852
vt 0.999852 0.044222
vt 0.000044 0.050864
vt 0.999956 0.346647
vt 0.000048 0.348868
vt 0.000056 0.989744
vt 0.000050 0.517149
vt 0.999857 0.059374
vt 0.000045 0.065827
vt 0.999945 0.314653
vt 0.000048 0.317314
vt 1.000177 0.989913
vt 0.000055 0.982758
vt 1.000026 0.552132
vt 0.000050 0.551366
vt 0.999863 0.076216
vt 0.000045 0.082387
vt 0.999934 0.283841
vt 0.000047 0.286938
vt 1.000174 0.980563
vt 0.000055 0.973579
vt 1.000038 0.586492
vt 0.000051 0.585257
vt 0.999869 0.094466
vt 0.000045 0.100358
vt 0.999924 0.254325
vt 0.000047 0.257902
vt 1.000170 0.969128
vt 0.000055 0.962324
vt 1.000050 0.620345
vt 0.000051 0.618587
vt 0.999876 0.113956
vt 0.000045 0.119550
vt 0.999914 0.226387
vt 0.000046 0.230339
vt 1.000165 0.955778
vt 0.000055 0.949135
vt 1.000061 0.653353
vt 0.000051 0.651133
vt 0.999883 0.134403
vt 0.000045 0.139768
vt 0.999905 0.199969
vt 0.000046 0.204358
vt 1.000160 0.940626
vt 0.000055 0.934173
vt 1.000072 0.685404
vt 0.000052 0.682686
vt 0.999897 0.175241
vt 0.000046 0.180039
vt 1.000154 0.923784
vt 0.000055 0.917613
vt 1.000083 0.716159
vt 0.000052 0.713062
vt 0.999889 0.152372
vt 0.000046 0.157434
vt 1.000148 0.905534
vt 0.000054 0.899642
vt 1.000093 0.745562
vt 0.000053 0.742099
vt 0.999882 0.131249
vt 0.000045 0.136573
vt 1.000141 0.886044
vt 0.000054 0.880450
vt 1.000103 0.773501
vt 0.000053 0.769661
vt 0.999875 0.111308
vt 0.000045 0.117004
vt 1.000134 0.865597
vt 0.000054 0.860232
vt 1.000112 0.800031
vt 0.000053 0.795642
vt 0.999868 0.092495
vt 0.000045 0.098392
vt 1.000127 0.844136
vt 0.000054 0.839174
vt 1.000120 0.824647
vt 0.000053 0.819962
s 0
usemtl Material.002
f 76/1/1 77/2/1 173/3/1 172/4/1
f 50/5/1 51/6/1 147/7/1 146/8/1
f 24/9/1 25/10/1 121/11/1 120/12/1
f 77/2/1 78/13/1 174/14/1 173/3/1
f 51/6/1 52/15/1 148/16/1 147/7/1
f 25/10/1 26/17/1 122/18/1 121/11/1
f 78/13/1 79/19/1 175/20/1 174/14/1
f 52/15/1 53/21/1 149/22/1 148/16/1
f 26/17/1 27/23/1 123/24/1 122/18/1
f 79/19/1 80/25/1 176/26/1 175/20/1
f 53/21/1 54/27/1 150/28/1 149/22/1
f 27/23/1 28/29/1 124/30/1 123/24/1
f 1/31/1 2/32/1 98/33/1 97/34/1
f 80/25/1 81/35/1 177/36/1 176/26/1
f 54/27/1 55/37/1 151/38/1 150/28/1
f 28/29/1 29/39/1 125/40/1 124/30/1
f 2/32/1 3/41/1 99/42/1 98/33/1
f 81/35/1 82/43/1 178/44/1 177/36/1
f 55/37/1 56/45/1 152/46/1 151/38/1
f 29/39/1 30/47/1 126/48/1 125/40/1
f 3/41/1 4/49/1 100/50/1 99/42/1
f 82/43/1 83/51/1 179/52/1 178/44/1
f 56/45/1 57/53/1 153/54/1 152/46/1
f 30/47/1 31/55/1 127/56/1 126/48/1
f 4/49/1 5/57/1 101/58/1 100/50/1
f 83/51/1 84/59/1 180/60/1 179/52/1
f 57/53/1 58/61/1 154/62/1 153/54/1
f 31/55/1 32/63/1 128/64/1 127/56/1
f 5/57/1 6/65/1 102/66/1 101/58/1
f 84/59/1 85/59/1 181/60/1 180/60/1
f 58/61/1 59/67/1 155/68/1 154/62/1
f 32/63/1 33/69/1 129/70/1 128/64/1
f 6/65/1 7/71/1 103/72/1 102/66/1
f 85/59/1 86/51/1 182/73/1 181/60/1
f 59/67/1 60/74/1 156/75/1 155/68/1
f 33/69/1 34/76/1 130/77/1 129/70/1
f 7/71/1 8/78/1 104/79/1 103/72/1
f 86/51/1 87/80/1 183/81/1 182/73/1
f 60/74/1 61/82/1 157/83/1 156/75/1
f 34/76/1 35/84/1 131/85/1 130/77/1
f 8/78/1 9/86/1 105/87/1 104/79/1
f 87/80/1 88/88/1 184/89/1 183/81/1
f 61/82/1 62/90/1 158/91/1 157/83/1
f 35/84/1 36/92/1 132/93/1 131/85/1
f 9/86/1 10/94/1 106/95/1 105/87/1
f 88/88/1 89/96/1 185/97/1 184/89/1
f 62/90/1 63/98/1 159/99/1 158/91/1
f 36/92/1 37/92/1 133/93/1 132/93/1
f 10/94/1 11/100/1 107/101/1 106/95/1
f 89/96/1 90/102/1 186/103/1 185/97/1
f 63/98/1 64/104/1 160/105/1 159/99/1
f 37/92/1 38/84/1 134/106/1 133/93/1
f 11/100/1 12/82/1 108/107/1 107/101/1
f 90/102/1 91/108/1 187/109/1 186/103/1
f 64/104/1 65/110/1 161/111/1 160/105/1
f 38/84/1 39/76/1 135/112/1 134/106/1
f 12/82/1 13/74/1 109/113/1 108/107/1
f 91/108/1 92/114/1 188/115/1 187/109/1
f 65/110/1 66/116/1 162/117/1 161/111/1
f 39/76/1 40/118/1 136/119/1 135/112/1
f 13/74/1 14/120/1 110/121/1 109/113/1
f 92/114/1 93/122/1 189/123/1 188/115/1
f 66/116/1 67/124/1 163/125/1 162/117/1
f 40/118/1 41/126/1 137/127/1 136/119/1
f 14/120/1 15/128/1 111/129/1 110/121/1
f 93/122/1 94/130/1 190/131/1 189/123/1
f 67/124/1 68/132/1 164/133/1 163/125/1
f 41/126/1 42/134/1 138/135/1 137/127/1
f 15/128/1 16/136/1 112/137/1 111/129/1
f 94/130/1 95/138/1 191/139/1 190/131/1
f 68/132/1 69/140/1 165/141/1 164/133/1
f 42/134/1 43/142/1 139/143/1 138/135/1
f 16/136/1 17/144/1 113/145/1 112/137/1
f 95/138/1 96/146/1 192/147/1 191/139/1
f 69/140/1 70/148/1 166/149/1 165/141/1
f 43/142/1 44/150/1 140/151/1 139/143/1
f 17/144/1 18/152/1 114/153/1 113/145/1
f 96/146/1 1/31/1 97/34/1 192/147/1
f 70/148/1 71/154/1 167/155/1 166/149/1
f 44/150/1 45/156/1 141/157/1 140/151/1
f 18/152/1 19/158/1 115/159/1 114/153/1
f 71/154/1 72/160/1 168/161/1 167/155/1
f 45/156/1 46/162/1 142/163/1 141/157/1
f 19/158/1 20/164/1 116/165/1 115/159/1
f 72/160/1 73/166/1 169/167/1 168/161/1
f 46/162/1 47/168/1 143/169/1 142/163/1
f 20/164/1 21/170/1 117/171/1 116/165/1
f 73/166/1 74/172/1 170/173/1 169/167/1
f 47/168/1 48/174/1 144/175/1 143/169/1
f 21/170/1 22/176/1 118/177/1 117/171/1
f 74/172/1 75/178/1 171/179/1 170/173/1
f 48/174/1 49/180/1 145/181/1 144/175/1
f 22/176/1 23/182/1 119/183/1 118/177/1
f 75/178/1 76/1/1 172/4/1 171/179/1
f 49/180/1 50/5/1 146/8/1 145/181/1
f 23/182/1 24/9/1 120/12/1 119/183/1
